<svg xmlns="http://www.w3.org/2000/svg" xmlns:xlink="http://www.w3.org/1999/xlink" width="500" zoomAndPan="magnify" viewBox="0 0 375 374.999991" height="500" preserveAspectRatio="xMidYMid meet" version="1.2"><defs/><g id="92938e93ec"><g style="fill:#000000;fill-opacity:1;"><g transform="translate(68.730469, 201.374987)"><path style="stroke:none" d="M 10.6875 -5.078125 C 11.007812 -5.410156 11.242188 -5.84375 11.390625 -6.375 C 11.546875 -6.914062 11.625 -7.570312 11.625 -8.34375 L 11.625 -18.671875 L 10.203125 -17.90625 L 10.203125 -18.703125 C 11.035156 -19.128906 11.882812 -19.613281 12.75 -20.15625 C 13.625 -20.695312 14.519531 -21.300781 15.4375 -21.96875 L 15.4375 -11.421875 C 15.4375 -9.847656 15.09375 -8.597656 14.40625 -7.671875 C 13.726562 -6.753906 12.488281 -5.890625 10.6875 -5.078125 Z M 1.765625 -22.59375 C 2.035156 -24.644531 2.691406 -26.128906 3.734375 -27.046875 C 4.785156 -27.972656 6.390625 -28.4375 8.546875 -28.4375 C 9.953125 -28.4375 11.925781 -28.257812 14.46875 -27.90625 C 17.019531 -27.5625 18.863281 -27.390625 20 -27.390625 C 20.945312 -27.390625 21.734375 -27.4375 22.359375 -27.53125 C 22.992188 -27.632812 23.566406 -27.796875 24.078125 -28.015625 C 23.671875 -27.085938 23.128906 -26.28125 22.453125 -25.59375 C 21.773438 -24.90625 20.972656 -24.363281 20.046875 -23.96875 L 20.046875 -6.046875 C 20.453125 -6.441406 20.867188 -6.882812 21.296875 -7.375 C 21.734375 -7.875 22.164062 -8.414062 22.59375 -9 C 22.007812 -5.914062 20.757812 -3.46875 18.84375 -1.65625 C 16.925781 0.144531 14.632812 1.046875 11.96875 1.046875 C 9.03125 1.046875 6.613281 0.0507812 4.71875 -1.9375 C 2.832031 -3.925781 1.890625 -6.488281 1.890625 -9.625 C 1.890625 -12.320312 2.445312 -14.785156 3.5625 -17.015625 C 4.675781 -19.253906 6.257812 -21.097656 8.3125 -22.546875 C 7.25 -20.878906 6.484375 -19.289062 6.015625 -17.78125 C 5.546875 -16.269531 5.3125 -14.6875 5.3125 -13.03125 C 5.3125 -10.101562 5.988281 -7.753906 7.34375 -5.984375 C 8.695312 -4.222656 10.46875 -3.34375 12.65625 -3.34375 C 13.71875 -3.34375 14.828125 -3.535156 15.984375 -3.921875 C 17.140625 -4.316406 18.289062 -4.878906 19.4375 -5.609375 L 19.4375 -23.78125 C 18.882812 -23.644531 18.378906 -23.539062 17.921875 -23.46875 C 17.460938 -23.394531 17.039062 -23.359375 16.65625 -23.359375 C 16 -23.359375 14.441406 -23.5 11.984375 -23.78125 C 9.523438 -24.0625 7.414062 -24.203125 5.65625 -24.203125 C 4.625 -24.203125 3.800781 -24.070312 3.1875 -23.8125 C 2.570312 -23.5625 2.097656 -23.15625 1.765625 -22.59375 Z M 1.765625 -22.59375 "/></g></g><g style="fill:#000000;fill-opacity:1;"><g transform="translate(92.082286, 201.374987)"><path style="stroke:none" d="M 1.015625 -1.375 C 1.078125 -2.007812 1.289062 -2.546875 1.65625 -2.984375 C 2.019531 -3.421875 2.550781 -3.796875 3.25 -4.109375 L 3.25 -22.171875 C 3.25 -23.210938 3.160156 -23.972656 2.984375 -24.453125 C 2.804688 -24.929688 2.503906 -25.382812 2.078125 -25.8125 C 3.109375 -26.125 4.078125 -26.535156 4.984375 -27.046875 C 5.898438 -27.566406 6.835938 -28.234375 7.796875 -29.046875 C 7.410156 -27.941406 7.125 -26.78125 6.9375 -25.5625 C 6.757812 -24.34375 6.671875 -22.773438 6.671875 -20.859375 L 6.671875 -14.8125 L 12.640625 -19.765625 C 13.128906 -18.910156 13.628906 -18.28125 14.140625 -17.875 C 14.648438 -17.46875 15.203125 -17.265625 15.796875 -17.265625 C 16.046875 -17.265625 16.285156 -17.300781 16.515625 -17.375 C 16.753906 -17.457031 17.019531 -17.59375 17.3125 -17.78125 C 17.25 -17.207031 17.082031 -16.707031 16.8125 -16.28125 C 16.550781 -15.851562 16.160156 -15.441406 15.640625 -15.046875 L 15.640625 -4.6875 C 15.640625 -3.914062 15.691406 -3.28125 15.796875 -2.78125 C 15.910156 -2.28125 16.09375 -1.785156 16.34375 -1.296875 C 15.945312 -1.398438 15.578125 -1.476562 15.234375 -1.53125 C 14.890625 -1.582031 14.550781 -1.609375 14.21875 -1.609375 C 13.519531 -1.609375 12.914062 -1.429688 12.40625 -1.078125 C 11.894531 -0.722656 11.640625 -0.320312 11.640625 0.125 C 11.640625 0.5 12.03125 1.140625 12.8125 2.046875 C 13.59375 2.960938 13.984375 3.851562 13.984375 4.71875 C 13.984375 5.601562 13.707031 6.335938 13.15625 6.921875 C 12.601562 7.515625 11.898438 7.835938 11.046875 7.890625 C 11.429688 7.566406 11.722656 7.171875 11.921875 6.703125 C 12.117188 6.234375 12.21875 5.691406 12.21875 5.078125 C 12.21875 4.210938 12.023438 3.238281 11.640625 2.15625 C 11.265625 1.070312 11.078125 0.429688 11.078125 0.234375 C 11.078125 -0.140625 11.253906 -0.582031 11.609375 -1.09375 C 11.972656 -1.613281 12.15625 -2.132812 12.15625 -2.65625 L 12.15625 -14.46875 C 11.75 -14.570312 11.359375 -14.765625 10.984375 -15.046875 C 10.617188 -15.335938 10.179688 -15.8125 9.671875 -16.46875 L 6.671875 -14 L 6.671875 -4.109375 C 7.203125 -3.890625 7.707031 -3.628906 8.1875 -3.328125 C 8.675781 -3.023438 9.140625 -2.679688 9.578125 -2.296875 C 8.691406 -1.878906 7.90625 -1.429688 7.21875 -0.953125 C 6.539062 -0.472656 5.941406 0.046875 5.421875 0.609375 C 5.054688 -0.0664062 4.554688 -0.613281 3.921875 -1.03125 C 3.296875 -1.445312 2.664062 -1.65625 2.03125 -1.65625 C 1.925781 -1.65625 1.796875 -1.632812 1.640625 -1.59375 C 1.484375 -1.550781 1.273438 -1.476562 1.015625 -1.375 Z M 1.015625 -1.375 "/></g></g><g style="fill:#000000;fill-opacity:1;"><g transform="translate(110.747987, 201.374987)"><path style="stroke:none" d="M 7.890625 -17.171875 L 6.6875 -16.859375 L 6.6875 -7.78125 L 11.5 -11 Z M 1.078125 -0.96875 C 1.078125 -1.6875 1.25 -2.300781 1.59375 -2.8125 C 1.945312 -3.320312 2.46875 -3.71875 3.15625 -4 L 3.15625 -13.59375 C 3.15625 -14.320312 3.0625 -14.953125 2.875 -15.484375 C 2.6875 -16.023438 2.398438 -16.519531 2.015625 -16.96875 L 3.390625 -16.96875 C 4.859375 -16.96875 6.320312 -17.234375 7.78125 -17.765625 C 9.25 -18.296875 10.40625 -18.976562 11.25 -19.8125 C 11.632812 -18.519531 12.164062 -17.273438 12.84375 -16.078125 C 13.53125 -14.890625 14.328125 -13.800781 15.234375 -12.8125 L 6.6875 -7.015625 L 6.6875 -4.375 C 7.757812 -4.238281 8.726562 -4.019531 9.59375 -3.71875 C 10.46875 -3.414062 11.222656 -3.035156 11.859375 -2.578125 L 12.984375 -3.46875 L 13.34375 -3 L 8.953125 0.890625 C 8.128906 0.160156 7.210938 -0.394531 6.203125 -0.78125 C 5.203125 -1.175781 4.1875 -1.375 3.15625 -1.375 C 2.78125 -1.375 2.425781 -1.34375 2.09375 -1.28125 C 1.757812 -1.21875 1.421875 -1.113281 1.078125 -0.96875 Z M 1.078125 -0.96875 "/></g></g><g style="fill:#000000;fill-opacity:1;"><g transform="translate(126.223981, 201.374987)"><path style="stroke:none" d=""/></g></g><g style="fill:#000000;fill-opacity:1;"><g transform="translate(135.41901, 201.374987)"><path style="stroke:none" d="M 3.34375 -3.84375 C 3.738281 -4.320312 4.019531 -4.875 4.1875 -5.5 C 4.351562 -6.132812 4.4375 -6.976562 4.4375 -8.03125 L 4.4375 -11.96875 L 3.265625 -11.96875 C 2.742188 -11.96875 2.367188 -11.863281 2.140625 -11.65625 C 1.921875 -11.457031 1.8125 -11.125 1.8125 -10.65625 C 1.5625 -10.914062 1.367188 -11.234375 1.234375 -11.609375 C 1.109375 -11.984375 1.046875 -12.382812 1.046875 -12.8125 C 1.046875 -13.988281 1.257812 -14.800781 1.6875 -15.25 C 2.113281 -15.707031 2.867188 -15.9375 3.953125 -15.9375 L 4.4375 -15.9375 L 4.4375 -17.78125 C 4.4375 -19.34375 4.789062 -20.492188 5.5 -21.234375 C 6.21875 -21.972656 7.476562 -22.53125 9.28125 -22.90625 C 8.894531 -22.40625 8.625 -21.921875 8.46875 -21.453125 C 8.3125 -20.984375 8.234375 -20.320312 8.234375 -19.46875 L 8.234375 -9.515625 C 8.234375 -8.054688 7.878906 -6.914062 7.171875 -6.09375 C 6.460938 -5.269531 5.1875 -4.519531 3.34375 -3.84375 Z M 11.046875 -18.1875 C 11.453125 -18.019531 11.878906 -17.894531 12.328125 -17.8125 C 12.785156 -17.738281 13.300781 -17.703125 13.875 -17.703125 C 14.425781 -17.703125 14.9375 -17.753906 15.40625 -17.859375 C 15.882812 -17.972656 16.34375 -18.148438 16.78125 -18.390625 L 16.78125 -21.65625 C 16.78125 -22.445312 16.609375 -23.003906 16.265625 -23.328125 C 15.929688 -23.660156 15.226562 -23.828125 14.15625 -23.828125 L 11.046875 -23.828125 Z M 11.046875 -10.765625 C 11.398438 -10.910156 11.800781 -11.015625 12.25 -11.078125 C 12.695312 -11.140625 13.253906 -11.171875 13.921875 -11.171875 C 14.515625 -11.171875 15.035156 -11.132812 15.484375 -11.0625 C 15.941406 -10.988281 16.375 -10.878906 16.78125 -10.734375 L 16.78125 -17.65625 C 16.21875 -17.445312 15.695312 -17.289062 15.21875 -17.1875 C 14.738281 -17.09375 14.25 -17.046875 13.75 -17.046875 C 13.269531 -17.046875 12.804688 -17.085938 12.359375 -17.171875 C 11.921875 -17.265625 11.484375 -17.390625 11.046875 -17.546875 Z M 11.046875 -4.390625 C 11.859375 -4.390625 12.65625 -4.238281 13.4375 -3.9375 C 14.21875 -3.644531 15.007812 -3.191406 15.8125 -2.578125 L 16.78125 -3.109375 L 16.78125 -10.125 C 16.375 -10.289062 15.957031 -10.410156 15.53125 -10.484375 C 15.113281 -10.566406 14.628906 -10.609375 14.078125 -10.609375 C 13.398438 -10.609375 12.820312 -10.566406 12.34375 -10.484375 C 11.863281 -10.410156 11.429688 -10.289062 11.046875 -10.125 Z M 1.34375 0.96875 C 2.070312 -0.601562 3.226562 -1.851562 4.8125 -2.78125 C 6.40625 -3.71875 8.289062 -4.253906 10.46875 -4.390625 L 10.46875 -23.828125 L 5.359375 -23.828125 C 3.796875 -23.828125 2.671875 -24.191406 1.984375 -24.921875 C 1.304688 -25.648438 0.96875 -26.832031 0.96875 -28.46875 C 1.226562 -28.320312 1.503906 -28.21875 1.796875 -28.15625 C 2.097656 -28.09375 2.507812 -28.0625 3.03125 -28.0625 L 15.125 -28.0625 C 17.207031 -28.0625 18.632812 -27.65625 19.40625 -26.84375 C 20.175781 -26.039062 20.5625 -24.660156 20.5625 -22.703125 L 20.5625 -5.6875 C 20.5625 -4.957031 20.625 -4.363281 20.75 -3.90625 C 20.882812 -3.457031 21.085938 -3.015625 21.359375 -2.578125 C 21.140625 -2.578125 20.898438 -2.59375 20.640625 -2.625 C 20.585938 -2.625 20.546875 -2.625 20.515625 -2.625 C 19.347656 -2.625 18.125 -2.3125 16.84375 -1.6875 C 15.5625 -1.0625 14.257812 -0.140625 12.9375 1.078125 C 11.945312 0.566406 10.90625 0.175781 9.8125 -0.09375 C 8.71875 -0.363281 7.613281 -0.5 6.5 -0.5 C 5.613281 -0.5 4.753906 -0.378906 3.921875 -0.140625 C 3.085938 0.0976562 2.226562 0.46875 1.34375 0.96875 Z M 1.34375 0.96875 "/></g></g><g style="fill:#000000;fill-opacity:1;"><g transform="translate(158.770827, 201.374987)"><path style="stroke:none" d="M 10.390625 -3.703125 L 10.390625 -14.359375 C 10.054688 -14.523438 9.757812 -14.738281 9.5 -15 C 9.238281 -15.269531 8.988281 -15.617188 8.75 -16.046875 C 8.113281 -15.742188 7.523438 -15.515625 6.984375 -15.359375 C 6.453125 -15.203125 5.96875 -15.125 5.53125 -15.125 C 5.132812 -15.125 4.738281 -15.1875 4.34375 -15.3125 C 3.957031 -15.445312 3.519531 -15.664062 3.03125 -15.96875 L 8.921875 -8.46875 L 8.390625 -8.078125 L 5.96875 -11.171875 C 5.53125 -10.546875 5.210938 -9.941406 5.015625 -9.359375 C 4.816406 -8.773438 4.71875 -8.15625 4.71875 -7.5 C 4.71875 -6.25 5.101562 -5.195312 5.875 -4.34375 C 6.65625 -3.5 7.75 -2.9375 9.15625 -2.65625 Z M 10.578125 -3.03125 L 6.6875 0.578125 C 5.019531 0.0234375 3.710938 -0.785156 2.765625 -1.859375 C 1.816406 -2.929688 1.34375 -4.109375 1.34375 -5.390625 C 1.34375 -6.640625 1.710938 -7.816406 2.453125 -8.921875 C 3.191406 -10.035156 4.234375 -10.960938 5.578125 -11.703125 L 1.375 -17.015625 L 1.453125 -17.015625 C 2.085938 -17.015625 2.753906 -17.238281 3.453125 -17.6875 C 4.160156 -18.144531 4.894531 -18.820312 5.65625 -19.71875 C 5.957031 -18.632812 6.316406 -17.820312 6.734375 -17.28125 C 7.148438 -16.738281 7.632812 -16.46875 8.1875 -16.46875 C 8.78125 -16.46875 9.40625 -16.734375 10.0625 -17.265625 C 10.726562 -17.796875 11.46875 -18.640625 12.28125 -19.796875 C 12.332031 -19.015625 12.566406 -18.382812 12.984375 -17.90625 C 13.398438 -17.4375 13.921875 -17.203125 14.546875 -17.203125 C 14.671875 -17.203125 14.832031 -17.226562 15.03125 -17.28125 C 15.238281 -17.34375 15.453125 -17.414062 15.671875 -17.5 C 15.597656 -17.125 15.425781 -16.769531 15.15625 -16.4375 C 14.882812 -16.101562 14.488281 -15.742188 13.96875 -15.359375 L 13.96875 -6.203125 C 13.96875 -5.097656 14.15625 -4.300781 14.53125 -3.8125 C 14.914062 -3.320312 15.523438 -3.078125 16.359375 -3.078125 L 16.78125 -3.078125 L 13.78125 0.65625 C 12.90625 0.257812 12.210938 -0.21875 11.703125 -0.78125 C 11.203125 -1.351562 10.828125 -2.101562 10.578125 -3.03125 Z M 10.578125 -3.03125 "/></g></g><g style="fill:#000000;fill-opacity:1;"><g transform="translate(175.861363, 201.374987)"><path style="stroke:none" d="M 2.578125 -22.90625 L 1.765625 -22.390625 L 1.5 -22.859375 C 2.707031 -23.722656 3.523438 -24.34375 3.953125 -24.71875 C 4.390625 -25.09375 4.710938 -25.429688 4.921875 -25.734375 C 5.203125 -25.066406 5.519531 -24.585938 5.875 -24.296875 C 6.238281 -24.003906 6.703125 -23.859375 7.265625 -23.859375 C 7.316406 -23.859375 7.394531 -23.863281 7.5 -23.875 C 7.601562 -23.894531 7.679688 -23.90625 7.734375 -23.90625 C 7.523438 -23.207031 7.148438 -22.644531 6.609375 -22.21875 C 6.066406 -21.789062 5.46875 -21.578125 4.8125 -21.578125 C 4.4375 -21.578125 4.054688 -21.6875 3.671875 -21.90625 C 3.296875 -22.132812 2.929688 -22.46875 2.578125 -22.90625 Z M 6.25 0.390625 C 5.0625 0.078125 4.226562 -0.554688 3.75 -1.515625 C 3.269531 -2.472656 3.03125 -4.132812 3.03125 -6.5 L 3.03125 -14.625 C 2.707031 -14.800781 2.421875 -14.988281 2.171875 -15.1875 C 1.921875 -15.394531 1.679688 -15.644531 1.453125 -15.9375 L 0.453125 -15.3125 L 0.15625 -15.765625 C 1.019531 -16.304688 1.859375 -16.894531 2.671875 -17.53125 C 3.492188 -18.164062 4.257812 -18.835938 4.96875 -19.546875 C 5.25 -18.910156 5.609375 -18.414062 6.046875 -18.0625 C 6.492188 -17.71875 6.976562 -17.546875 7.5 -17.546875 C 7.59375 -17.546875 7.710938 -17.570312 7.859375 -17.625 C 8.015625 -17.675781 8.269531 -17.78125 8.625 -17.9375 C 8.59375 -17.289062 8.410156 -16.726562 8.078125 -16.25 C 7.742188 -15.769531 7.242188 -15.351562 6.578125 -15 L 6.578125 -6.65625 C 6.578125 -5.300781 6.785156 -4.382812 7.203125 -3.90625 C 7.628906 -3.4375 8.382812 -3.1875 9.46875 -3.15625 C 8.738281 -2.53125 8.097656 -1.921875 7.546875 -1.328125 C 7.003906 -0.734375 6.570312 -0.160156 6.25 0.390625 Z M 6.25 0.390625 "/></g></g><g style="fill:#000000;fill-opacity:1;"><g transform="translate(185.863659, 201.374987)"><path style="stroke:none" d="M 0.921875 -1 C 1.066406 -1.582031 1.328125 -2.078125 1.703125 -2.484375 C 2.078125 -2.898438 2.570312 -3.238281 3.1875 -3.5 L 3.1875 -21.703125 C 3.1875 -22.753906 3.082031 -23.53125 2.875 -24.03125 C 2.675781 -24.539062 2.320312 -25.023438 1.8125 -25.484375 C 2.90625 -25.597656 3.929688 -25.894531 4.890625 -26.375 C 5.859375 -26.863281 6.859375 -27.601562 7.890625 -28.59375 L 8.1875 -28.3125 C 7.65625 -27.707031 7.28125 -27.019531 7.0625 -26.25 C 6.84375 -25.476562 6.734375 -24.09375 6.734375 -22.09375 L 6.734375 -4.359375 C 7.304688 -4.140625 7.789062 -3.875 8.1875 -3.5625 C 8.59375 -3.25 8.957031 -2.851562 9.28125 -2.375 L 10.28125 -3.109375 L 10.609375 -2.578125 C 9.578125 -1.828125 8.691406 -1.125 7.953125 -0.46875 C 7.222656 0.1875 6.738281 0.703125 6.5 1.078125 C 6.15625 0.398438 5.628906 -0.148438 4.921875 -0.578125 C 4.222656 -1.015625 3.492188 -1.234375 2.734375 -1.234375 C 2.484375 -1.234375 2.203125 -1.210938 1.890625 -1.171875 C 1.578125 -1.140625 1.253906 -1.082031 0.921875 -1 Z M 0.921875 -1 "/></g></g><g style="fill:#000000;fill-opacity:1;"><g transform="translate(195.747818, 201.374987)"><path style="stroke:none" d="M 13.328125 -19.8125 C 13.753906 -19.03125 14.378906 -18.394531 15.203125 -17.90625 C 16.035156 -17.414062 16.890625 -17.171875 17.765625 -17.171875 L 17.96875 -17.171875 C 17.695312 -16.710938 17.367188 -16.3125 16.984375 -15.96875 C 16.609375 -15.625 16.144531 -15.316406 15.59375 -15.046875 L 15.59375 -2.578125 C 15.8125 -2.117188 15.960938 -1.675781 16.046875 -1.25 C 16.140625 -0.832031 16.1875 -0.398438 16.1875 0.046875 C 16.1875 2.140625 15.335938 3.910156 13.640625 5.359375 C 11.953125 6.816406 9.875 7.546875 7.40625 7.546875 C 6.175781 7.546875 5.023438 7.171875 3.953125 6.421875 C 2.890625 5.679688 2.25 5.3125 2.03125 5.3125 C 1.664062 5.3125 1.359375 5.421875 1.109375 5.640625 C 0.859375 5.859375 0.632812 6.222656 0.4375 6.734375 C 0.394531 6.390625 0.367188 6.140625 0.359375 5.984375 C 0.347656 5.828125 0.34375 5.691406 0.34375 5.578125 C 0.34375 4.703125 0.617188 3.957031 1.171875 3.34375 C 1.722656 2.726562 2.378906 2.421875 3.140625 2.421875 C 3.660156 2.421875 4.148438 2.570312 4.609375 2.875 C 5.066406 3.1875 5.59375 3.734375 6.1875 4.515625 C 6.789062 5.335938 7.320312 5.890625 7.78125 6.171875 C 8.238281 6.460938 8.769531 6.609375 9.375 6.609375 C 10.414062 6.609375 11.320312 6.234375 12.09375 5.484375 C 12.863281 4.742188 13.25 3.851562 13.25 2.8125 C 13.25 2.363281 13.046875 1.566406 12.640625 0.421875 C 12.234375 -0.722656 12.03125 -1.914062 12.03125 -3.15625 L 12.03125 -4.8125 L 6.234375 0.390625 C 5.867188 -0.335938 5.351562 -0.941406 4.6875 -1.421875 C 4.019531 -1.898438 3.351562 -2.140625 2.6875 -2.140625 C 2.539062 -2.140625 2.378906 -2.117188 2.203125 -2.078125 C 2.023438 -2.046875 1.769531 -1.96875 1.4375 -1.84375 C 1.582031 -2.3125 1.789062 -2.707031 2.0625 -3.03125 C 2.34375 -3.363281 2.710938 -3.671875 3.171875 -3.953125 L 3.171875 -12.859375 C 3.171875 -14.015625 2.941406 -14.835938 2.484375 -15.328125 C 2.023438 -15.816406 1.265625 -16.085938 0.203125 -16.140625 L 0.34375 -16.265625 C 1.707031 -17.460938 2.753906 -18.671875 3.484375 -19.890625 C 4.679688 -19.578125 5.519531 -19.023438 6 -18.234375 C 6.476562 -17.441406 6.71875 -16.148438 6.71875 -14.359375 L 6.71875 -4.59375 C 7.019531 -4.414062 7.328125 -4.179688 7.640625 -3.890625 C 7.953125 -3.609375 8.328125 -3.195312 8.765625 -2.65625 L 12.03125 -5.390625 L 12.03125 -15 C 11.457031 -15.207031 11.046875 -15.378906 10.796875 -15.515625 C 10.546875 -15.648438 10.34375 -15.789062 10.1875 -15.9375 L 9.421875 -15.359375 L 9.140625 -15.859375 C 10.140625 -16.515625 10.972656 -17.160156 11.640625 -17.796875 C 12.304688 -18.429688 12.867188 -19.101562 13.328125 -19.8125 Z M 13.328125 -19.8125 "/></g></g><g style="fill:#000000;fill-opacity:1;"><g transform="translate(214.413519, 201.374987)"><path style="stroke:none" d=""/></g></g><g style="fill:#007aff;fill-opacity:1;"><g transform="translate(223.617182, 201.374987)"><path style="stroke:none" d="M 20.78125 -5.125 L 20.78125 -16.78125 C 20.332031 -16.570312 19.847656 -16.410156 19.328125 -16.296875 C 18.804688 -16.179688 18.265625 -16.125 17.703125 -16.125 C 17.234375 -16.125 16.816406 -16.15625 16.453125 -16.21875 C 16.085938 -16.289062 15.738281 -16.398438 15.40625 -16.546875 L 15.671875 -15.8125 C 17.867188 -9.863281 19.570312 -6.300781 20.78125 -5.125 Z M 6.15625 -10.203125 C 6.851562 -10.503906 7.515625 -10.726562 8.140625 -10.875 C 8.765625 -11.019531 9.359375 -11.09375 9.921875 -11.09375 C 10.453125 -11.09375 11.023438 -11.023438 11.640625 -10.890625 C 12.265625 -10.753906 12.96875 -10.550781 13.75 -10.28125 L 13.109375 -11.890625 C 10.179688 -19.316406 7.863281 -23.429688 6.15625 -24.234375 Z M 0.234375 1 C 0.679688 -0.5625 1.335938 -1.78125 2.203125 -2.65625 C 3.066406 -3.539062 4.203125 -4.117188 5.609375 -4.390625 L 5.609375 -11.859375 C 5.566406 -11.867188 5.53125 -11.878906 5.5 -11.890625 C 5.195312 -11.972656 4.976562 -12.015625 4.84375 -12.015625 C 4.375 -12.015625 3.992188 -11.878906 3.703125 -11.609375 C 3.410156 -11.335938 3.265625 -10.976562 3.265625 -10.53125 C 3.265625 -10.519531 3.25 -10.503906 3.21875 -10.484375 C 3.195312 -10.460938 3.1875 -10.445312 3.1875 -10.4375 C 2.914062 -10.75 2.71875 -11.09375 2.59375 -11.46875 C 2.476562 -11.851562 2.421875 -12.316406 2.421875 -12.859375 C 2.421875 -13.765625 2.625 -14.484375 3.03125 -15.015625 C 3.4375 -15.546875 3.972656 -15.8125 4.640625 -15.8125 C 4.753906 -15.8125 4.878906 -15.800781 5.015625 -15.78125 C 5.148438 -15.769531 5.34375 -15.753906 5.59375 -15.734375 L 5.609375 -24.390625 C 5.453125 -24.441406 5.304688 -24.484375 5.171875 -24.515625 C 5.035156 -24.546875 4.882812 -24.5625 4.71875 -24.5625 C 3.875 -24.5625 3.125 -24.234375 2.46875 -23.578125 C 1.820312 -22.929688 1.5 -22.140625 1.5 -21.203125 C 1.3125 -21.628906 1.175781 -22.035156 1.09375 -22.421875 C 1.007812 -22.804688 0.96875 -23.179688 0.96875 -23.546875 C 0.96875 -25.003906 1.429688 -26.195312 2.359375 -27.125 C 3.296875 -28.050781 4.5 -28.515625 5.96875 -28.515625 C 7.675781 -28.515625 9.203125 -27.703125 10.546875 -26.078125 C 11.898438 -24.460938 13.4375 -21.503906 15.15625 -17.203125 C 15.65625 -17.046875 16.132812 -16.925781 16.59375 -16.84375 C 17.0625 -16.769531 17.5 -16.734375 17.90625 -16.734375 C 18.414062 -16.734375 18.90625 -16.796875 19.375 -16.921875 C 19.84375 -17.046875 20.3125 -17.238281 20.78125 -17.5 L 20.78125 -23.15625 L 20.609375 -23.15625 C 19.921875 -23.15625 19.238281 -23.265625 18.5625 -23.484375 C 17.882812 -23.703125 17.148438 -24.046875 16.359375 -24.515625 L 15.359375 -23.671875 L 15.046875 -24.046875 C 16.003906 -24.898438 16.828125 -25.703125 17.515625 -26.453125 C 18.203125 -27.210938 18.722656 -27.882812 19.078125 -28.46875 C 19.734375 -27.957031 20.332031 -27.59375 20.875 -27.375 C 21.414062 -27.164062 21.957031 -27.0625 22.5 -27.0625 C 23.082031 -27.0625 23.617188 -27.160156 24.109375 -27.359375 C 24.597656 -27.566406 25.066406 -27.882812 25.515625 -28.3125 C 25.515625 -27.15625 25.132812 -26.113281 24.375 -25.1875 C 23.625 -24.269531 22.609375 -23.609375 21.328125 -23.203125 L 21.328125 1.234375 C 20.273438 1.109375 19.179688 0.222656 18.046875 -1.421875 C 16.921875 -3.078125 15.585938 -5.757812 14.046875 -9.46875 C 13.390625 -9.800781 12.734375 -10.035156 12.078125 -10.171875 C 11.429688 -10.316406 10.753906 -10.390625 10.046875 -10.390625 C 9.265625 -10.390625 8.554688 -10.316406 7.921875 -10.171875 C 7.296875 -10.035156 6.707031 -9.816406 6.15625 -9.515625 L 6.15625 -4.46875 L 7.046875 -4.46875 C 7.898438 -4.46875 8.769531 -4.320312 9.65625 -4.03125 C 10.550781 -3.75 11.335938 -3.359375 12.015625 -2.859375 L 12.546875 -3.421875 L 12.984375 -3.078125 C 12.140625 -2.179688 11.441406 -1.382812 10.890625 -0.6875 C 10.335938 0.0078125 9.890625 0.648438 9.546875 1.234375 C 8.828125 0.660156 8.078125 0.222656 7.296875 -0.078125 C 6.515625 -0.378906 5.722656 -0.53125 4.921875 -0.53125 C 4.203125 -0.53125 3.460938 -0.40625 2.703125 -0.15625 C 1.941406 0.09375 1.117188 0.476562 0.234375 1 Z M 0.234375 1 "/></g></g><g style="fill:#007aff;fill-opacity:1;"><g transform="translate(247.61876, 201.374987)"><path style="stroke:none" d="M 7.890625 -17.171875 L 6.6875 -16.859375 L 6.6875 -7.78125 L 11.5 -11 Z M 1.078125 -0.96875 C 1.078125 -1.6875 1.25 -2.300781 1.59375 -2.8125 C 1.945312 -3.320312 2.46875 -3.71875 3.15625 -4 L 3.15625 -13.59375 C 3.15625 -14.320312 3.0625 -14.953125 2.875 -15.484375 C 2.6875 -16.023438 2.398438 -16.519531 2.015625 -16.96875 L 3.390625 -16.96875 C 4.859375 -16.96875 6.320312 -17.234375 7.78125 -17.765625 C 9.25 -18.296875 10.40625 -18.976562 11.25 -19.8125 C 11.632812 -18.519531 12.164062 -17.273438 12.84375 -16.078125 C 13.53125 -14.890625 14.328125 -13.800781 15.234375 -12.8125 L 6.6875 -7.015625 L 6.6875 -4.375 C 7.757812 -4.238281 8.726562 -4.019531 9.59375 -3.71875 C 10.46875 -3.414062 11.222656 -3.035156 11.859375 -2.578125 L 12.984375 -3.46875 L 13.34375 -3 L 8.953125 0.890625 C 8.128906 0.160156 7.210938 -0.394531 6.203125 -0.78125 C 5.203125 -1.175781 4.1875 -1.375 3.15625 -1.375 C 2.78125 -1.375 2.425781 -1.34375 2.09375 -1.28125 C 1.757812 -1.21875 1.421875 -1.113281 1.078125 -0.96875 Z M 1.078125 -0.96875 "/></g></g><g style="fill:#007aff;fill-opacity:1;"><g transform="translate(263.094753, 201.374987)"><path style="stroke:none" d="M 14.21875 0.28125 C 13.300781 -0.175781 12.628906 -0.71875 12.203125 -1.34375 C 11.773438 -1.976562 11.5625 -2.75 11.5625 -3.65625 L 11.5625 -4.078125 L 6.671875 0.390625 C 6.304688 -0.335938 5.789062 -0.941406 5.125 -1.421875 C 4.457031 -1.898438 3.796875 -2.140625 3.140625 -2.140625 C 2.992188 -2.140625 2.828125 -2.117188 2.640625 -2.078125 C 2.453125 -2.046875 2.195312 -1.96875 1.875 -1.84375 C 2.019531 -2.320312 2.226562 -2.726562 2.5 -3.0625 C 2.78125 -3.394531 3.148438 -3.691406 3.609375 -3.953125 L 3.609375 -12.5 C 3.609375 -13.757812 3.472656 -14.734375 3.203125 -15.421875 C 2.929688 -16.117188 2.515625 -16.546875 1.953125 -16.703125 L 0.640625 -15.765625 L 0.359375 -16.296875 L 0.515625 -16.40625 C 2.671875 -17.832031 4.226562 -18.992188 5.1875 -19.890625 C 5.882812 -19.359375 6.390625 -18.625 6.703125 -17.6875 C 7.015625 -16.75 7.171875 -15.492188 7.171875 -13.921875 L 7.171875 -4.59375 C 7.441406 -4.4375 7.734375 -4.210938 8.046875 -3.921875 C 8.367188 -3.628906 8.757812 -3.207031 9.21875 -2.65625 L 11.53125 -4.6875 L 11.53125 -12.5 C 11.53125 -13.738281 11.382812 -14.707031 11.09375 -15.40625 C 10.8125 -16.113281 10.390625 -16.546875 9.828125 -16.703125 L 8.484375 -15.765625 L 8.25 -16.28125 L 8.40625 -16.40625 C 10.5625 -17.832031 12.125 -18.992188 13.09375 -19.890625 C 13.78125 -19.359375 14.28125 -18.625 14.59375 -17.6875 C 14.90625 -16.75 15.0625 -15.492188 15.0625 -13.921875 L 15.0625 -6.5 C 15.0625 -5.050781 15.21875 -4.078125 15.53125 -3.578125 C 15.851562 -3.078125 16.425781 -2.691406 17.25 -2.421875 C 17.632812 -2.554688 18.023438 -2.679688 18.421875 -2.796875 C 18.828125 -2.910156 19.222656 -3.03125 19.609375 -3.15625 L 19.609375 -14.96875 C 19.285156 -15.1875 18.992188 -15.429688 18.734375 -15.703125 C 18.472656 -15.972656 18.226562 -16.28125 18 -16.625 L 16.71875 -15.65625 L 16.453125 -16.203125 C 17.566406 -17.015625 18.488281 -17.695312 19.21875 -18.25 C 19.945312 -18.8125 20.59375 -19.332031 21.15625 -19.8125 C 21.507812 -18.851562 21.953125 -18.097656 22.484375 -17.546875 C 23.023438 -17.003906 23.59375 -16.734375 24.1875 -16.734375 C 24.3125 -16.734375 24.445312 -16.753906 24.59375 -16.796875 C 24.75 -16.835938 24.945312 -16.910156 25.1875 -17.015625 C 24.96875 -16.460938 24.703125 -16.007812 24.390625 -15.65625 C 24.078125 -15.3125 23.675781 -15.015625 23.1875 -14.765625 L 23.1875 -6.078125 C 23.1875 -5.410156 23.25 -4.785156 23.375 -4.203125 C 23.507812 -3.617188 23.707031 -3.070312 23.96875 -2.5625 C 23.507812 -2.613281 23.101562 -2.65625 22.75 -2.6875 C 22.40625 -2.71875 22.085938 -2.734375 21.796875 -2.734375 C 20.460938 -2.734375 19.140625 -2.46875 17.828125 -1.9375 C 16.515625 -1.414062 15.3125 -0.675781 14.21875 0.28125 Z M 14.21875 0.28125 "/></g></g><g style="fill:#007aff;fill-opacity:1;"><g transform="translate(288.789633, 201.374987)"><path style="stroke:none" d="M 7.578125 -9.59375 C 8.273438 -10.363281 9.234375 -11.378906 10.453125 -12.640625 C 12.671875 -14.921875 13.894531 -16.488281 14.125 -17.34375 C 13.59375 -16.757812 13.0625 -16.316406 12.53125 -16.015625 C 12 -15.722656 11.476562 -15.578125 10.96875 -15.578125 C 10.445312 -15.578125 9.957031 -15.734375 9.5 -16.046875 C 9.050781 -16.359375 8.664062 -16.816406 8.34375 -17.421875 L 6.609375 -16.96875 L 6.609375 -9.59375 Z M 2.421875 -2.859375 C 2.984375 -3.273438 3.609375 -3.609375 4.296875 -3.859375 C 4.992188 -4.109375 5.613281 -4.234375 6.15625 -4.234375 C 6.789062 -4.234375 7.382812 -4.070312 7.9375 -3.75 C 8.488281 -3.4375 9.050781 -2.941406 9.625 -2.265625 L 11.28125 -2.625 L 11.28125 -10.078125 L 9.3125 -10.078125 C 8.363281 -9.015625 7.066406 -7.703125 5.421875 -6.140625 C 3.773438 -4.585938 2.773438 -3.492188 2.421875 -2.859375 Z M 1.28125 0.609375 L 0.8125 0.609375 C 0.8125 0.554688 0.816406 0.46875 0.828125 0.34375 C 0.835938 0.226562 0.84375 0.140625 0.84375 0.078125 C 0.84375 -0.847656 1.210938 -1.894531 1.953125 -3.0625 C 2.703125 -4.238281 4.039062 -5.8125 5.96875 -7.78125 L 2.296875 -7.78125 C 2.578125 -8.207031 2.773438 -8.628906 2.890625 -9.046875 C 3.015625 -9.472656 3.078125 -9.992188 3.078125 -10.609375 L 3.078125 -15.4375 C 3.078125 -15.789062 3.003906 -16.128906 2.859375 -16.453125 C 2.722656 -16.785156 2.523438 -17.097656 2.265625 -17.390625 C 2.398438 -17.378906 2.691406 -17.351562 3.140625 -17.3125 C 3.585938 -17.28125 3.953125 -17.265625 4.234375 -17.265625 C 5.585938 -17.265625 6.847656 -17.460938 8.015625 -17.859375 C 9.179688 -18.265625 10.269531 -18.867188 11.28125 -19.671875 C 11.644531 -19.210938 12.007812 -18.867188 12.375 -18.640625 C 12.75 -18.421875 13.128906 -18.3125 13.515625 -18.3125 C 13.898438 -18.3125 14.203125 -18.425781 14.421875 -18.65625 C 14.648438 -18.882812 14.789062 -19.222656 14.84375 -19.671875 L 15.484375 -19.671875 C 15.316406 -18.546875 14.953125 -17.457031 14.390625 -16.40625 C 13.835938 -15.351562 12.722656 -13.847656 11.046875 -11.890625 L 15.515625 -11.890625 C 15.296875 -11.691406 15.128906 -11.375 15.015625 -10.9375 C 14.898438 -10.507812 14.84375 -9.941406 14.84375 -9.234375 L 14.84375 -4.640625 C 14.84375 -3.867188 14.898438 -3.257812 15.015625 -2.8125 C 15.128906 -2.363281 15.316406 -1.925781 15.578125 -1.5 C 15.066406 -1.65625 14.554688 -1.769531 14.046875 -1.84375 C 13.546875 -1.925781 13.03125 -1.96875 12.5 -1.96875 C 11.257812 -1.96875 10.140625 -1.75 9.140625 -1.3125 C 8.148438 -0.882812 7.242188 -0.21875 6.421875 0.6875 C 5.734375 -0.125 5.15625 -0.691406 4.6875 -1.015625 C 4.21875 -1.335938 3.734375 -1.5 3.234375 -1.5 C 2.691406 -1.5 2.242188 -1.3125 1.890625 -0.9375 C 1.546875 -0.5625 1.34375 -0.046875 1.28125 0.609375 Z M 1.28125 0.609375 "/></g></g></g></svg>